<svg width="449" height="159" viewBox="0 0 449 159" fill="none" xmlns="http://www.w3.org/2000/svg">
<path d="M173.835 158.368H143.633C143.584 156.68 143.691 154.968 143.633 153.281C143.319 143.026 142.088 132.976 139.371 123.066C125.856 73.7965 81.0895 38.149 29.6072 36.4535V58.1663C71.3333 59.7301 108.004 89.3856 118.569 129.437C121.064 138.886 121.973 148.581 121.824 158.368H91.4157C91.6222 151.232 91.0274 144.071 89.2018 137.165C82.056 110.218 57.6779 90.0688 29.6072 88.4473V110.16C47.4839 111.823 63.0145 124.663 67.9133 141.832C69.4663 147.281 69.8216 152.705 69.615 158.368H39.2065V152.096C39.2065 146.993 32.0112 140.244 26.9059 140.244H21.0076V131.675C24.3285 131.618 27.5585 131.61 30.8133 132.367C39.066 134.293 45.8813 141.511 47.4178 149.8H60.8171C58.9997 134.317 46.6909 121.51 31.2512 118.984C27.8146 118.424 24.4937 118.481 21.0158 118.523V79.8791C36.3482 79.1301 51.3831 82.7763 64.4106 90.752C84.9639 103.337 98.6275 125.626 99.8336 149.8H113.035C111.721 114.704 87.88 83.4595 54.9271 71.7059C44.0391 67.821 32.5894 66.2407 21.0158 66.5288V27.8853C23.6428 27.9511 26.2946 27.7947 28.9216 27.8853C55.3979 28.6919 81.2299 37.7704 102.204 53.7134C132.167 76.488 150.878 112.037 152.035 149.808H165.236C164.476 119.206 152.985 89.3774 133.621 65.8456C106.318 32.6591 64.4189 13.2427 21.0076 14.7407V6.17248C23.9072 6.24655 26.8233 6.07371 29.7146 6.17248C74.6212 7.55525 116.694 29.3092 143.708 64.7674C164.046 91.4598 174.884 124.687 173.835 158.376V158.368Z" fill="#144FA7"/>
<path d="M404.233 61.0148C423.646 60.1753 446.075 62.3318 448.677 85.9623C450.866 105.782 441.919 118.778 421.771 121.116C413.931 122.021 404.192 122.021 396.393 120.894C381.614 118.754 371.941 109.708 371.065 94.5223C369.727 71.4679 382.391 61.9614 404.225 61.0148H404.233ZM407.835 75.3611C397.285 76.2994 394.419 84.2668 395.072 93.7239C395.542 100.465 398.847 105.683 405.836 106.91C416.104 108.712 424.117 104.687 424.877 93.7239C425.703 81.7975 420.623 74.2252 407.835 75.3611Z" fill="#010101"/>
<path d="M289.852 119.724V62.9485H337.171C355.989 63.8786 363.672 74.0436 363.275 92.3406C362.887 110.35 353.858 118.942 335.973 119.733H289.86L289.852 119.724ZM312.454 105.378C321.508 104.736 335.725 108.374 338.955 96.8099C339.996 93.0814 339.979 88.0853 338.55 84.4637C334.568 74.3234 320.913 77.9861 312.446 77.2865V105.378H312.454Z" fill="#010101"/>
<path d="M279.451 79.6821H253.248C253.38 75.3362 248.217 74.118 244.755 73.8958C241.748 73.7065 233.496 73.6242 233.843 78.184C233.983 80.1018 235.429 80.4804 237.007 80.8179C245.482 82.6287 254.883 83.1884 263.516 84.6946C271.099 86.0198 279.559 88.8018 281.55 97.2136C283.136 103.889 280.996 111.082 275.428 115.223C265.474 122.638 242.897 122.457 230.968 120.885C220.493 119.511 208.828 115 209.035 102.588H236.238C236.296 103.938 236.808 105.197 237.857 106.053C240.468 108.193 249.803 108.259 252.777 106.802C256.453 105.008 255.734 100.432 251.653 99.4853C242.294 97.3206 231.298 97.4358 222.038 94.9172C212.438 92.3081 207.854 84.1349 210.538 74.5049C214.562 60.0516 239.675 60.2903 251.546 61.1628C263.417 62.0353 278.757 65.377 279.451 79.6903V79.6821Z" fill="#010101"/>
<path d="M21.0076 0V5.17716H5.2044V15.4327C5.2044 15.4327 5.48527 15.729 5.5018 15.729H21.0076V20.9062H0V0H21.0076Z" fill="#144FA7"/>
<path d="M413.874 158.368C413.535 158.319 411.941 158.442 411.875 158.368C411.685 158.171 411.751 154.598 411.47 153.981C407.786 159.035 401.301 160.121 395.617 157.915C386.191 154.261 386.101 139.248 394.857 134.746C401.408 131.379 411.999 133.495 413.469 141.627C412.833 141.512 411.106 141.833 410.66 141.536C410.528 141.454 410.066 139.989 409.826 139.577C407.662 135.717 401.92 135.067 398.021 136.112C388.777 138.59 388.802 154.5 398.616 156.319C404.911 157.487 410.644 154.689 411.47 148.006H402.465C402.507 147.578 402.292 145.619 402.763 145.619H413.866V158.368H413.874Z" fill="#010101"/>
<path d="M304.052 154.582V133.865C304.787 134.005 306.481 133.454 306.654 134.359L306.563 158.179C304.969 158.566 304.019 158.673 302.846 157.471C297.46 151.965 292.668 144.574 287.439 138.746C287.15 138.425 286.82 138.047 286.448 137.841V158.064C286.448 158.426 283.631 158.706 283.648 157.866L283.738 134.046C283.945 133.75 286.654 133.684 287.059 134.145C292.693 140.425 297.642 147.619 303.259 153.874C303.482 154.121 303.738 154.442 304.052 154.574V154.582Z" fill="#010101"/>
<path d="M370.429 133.33C380.565 132.293 387.719 139.791 385.216 149.849C382.16 162.105 362.185 161.957 359.401 149.775C357.534 141.594 361.788 134.219 370.429 133.338V133.33ZM371.024 135.717C364.333 136.392 361.218 141.487 361.887 147.882C363.052 158.977 380.565 159.677 382.614 148.45C384.01 140.787 378.897 134.919 371.024 135.709V135.717Z" fill="#010101"/>
<path d="M321.219 133.33C330.471 132.384 337.27 138.244 336.436 147.685C335.155 162.196 312.826 162.632 310.108 149.446C308.448 141.388 312.768 134.186 321.211 133.322L321.219 133.33ZM321.822 135.717C314.511 136.458 311.099 143.067 313.156 149.8C315.915 158.813 330.405 158.837 333.115 149.751C335.502 141.726 330.356 134.853 321.822 135.717Z" fill="#010101"/>
<path d="M253.445 133.865V136.252H236.444V144.417H252.851V146.804H236.444V155.669C236.444 155.669 236.725 155.965 236.742 155.965H253.644V158.352H234.139C234.139 158.352 233.842 158.072 233.842 158.055V134.153C233.842 134.153 234.123 133.857 234.139 133.857H253.445V133.865Z" fill="#010101"/>
<path d="M280.649 142.236C280.203 142.154 278.237 142.36 278.063 142.22C278.014 142.17 277.848 141.15 277.733 140.853C275.717 135.536 268.811 134.647 264.044 136.565C256.188 139.726 256.799 153.718 265.077 156.047C270.29 157.513 275.733 156.171 277.79 150.862C277.931 150.492 278.187 149.092 278.253 149.035C278.427 148.887 280.384 149.101 280.839 149.018C279.889 161.109 261.037 162.418 256.733 151.8C253.982 145.002 256.675 136.121 264.143 133.89C270.727 131.923 280.112 134.302 280.632 142.244L280.649 142.236Z" fill="#010101"/>
<path d="M445.984 158.368C445.596 158.245 443.043 151.191 442.556 151.026H429.702L426.579 158.171C426.067 158.623 424.415 158.253 423.68 158.368L434.708 133.89L437.591 133.849L448.884 158.368C448.14 158.22 446.596 158.566 445.984 158.368ZM431.082 148.409H441.482L436.377 136.853L431.082 148.409Z" fill="#010101"/>
<path d="M230.844 133.865V136.26H221.244V158.368H218.642V136.26H209.035V133.865H230.844Z" fill="#010101"/>
<path d="M342.26 133.865V155.677C342.26 155.677 342.541 155.973 342.558 155.973H357.857C357.816 156.401 358.031 158.36 357.56 158.36H339.956C339.956 158.36 339.658 158.08 339.658 158.064V133.857H342.26V133.865Z" fill="#010101"/>
<path d="M420.276 133.865H417.674V158.171H420.276V133.865Z" fill="#010101"/>
</svg>
